<svg xmlns="http://www.w3.org/2000/svg" version="1.1" xmlns:xlink="http://www.w3.org/1999/xlink" xmlns:svgjs="http://svgjs.dev/svgjs" width="1920" height="1080" preserveAspectRatio="none" viewBox="0 0 1920 1080"><g mask="url(&quot;#SvgjsMask2290&quot;)" fill="none"><rect width="1920" height="1080" x="0" y="0" fill="url(&quot;#SvgjsLinearGradient2291&quot;)"></rect><path d="M1920 0L982.19 0L1920 221.68z" fill="rgba(255, 255, 255, .1)"></path><path d="M982.19 0L1920 221.68L1920 319.88L679.07 0z" fill="rgba(255, 255, 255, .075)"></path><path d="M679.0700000000002 0L1920 319.88L1920 649.81L640.5700000000002 0z" fill="rgba(255, 255, 255, .05)"></path><path d="M640.5700000000002 0L1920 649.81L1920 878.78L530.2900000000002 0z" fill="rgba(255, 255, 255, .025)"></path><path d="M0 1080L619.72 1080L0 1008.3z" fill="rgba(0, 0, 0, .1)"></path><path d="M0 1008.3L619.72 1080L1273.16 1080L0 670.18z" fill="rgba(0, 0, 0, .075)"></path><path d="M0 670.1800000000001L1273.16 1080L1646.0800000000002 1080L0 626.6200000000001z" fill="rgba(0, 0, 0, .05)"></path><path d="M0 626.62L1646.0800000000002 1080L1734.38 1080L0 486.35z" fill="rgba(0, 0, 0, .025)"></path></g><defs><mask id="SvgjsMask2290"><rect width="1920" height="1080" fill="#ffffff"></rect></mask><linearGradient x1="10.94%" y1="-19.44%" x2="89.06%" y2="119.44%" gradientUnits="userSpaceOnUse" id="SvgjsLinearGradient2291"><stop stop-color="rgba(97, 72, 0, 1)" offset="0"></stop><stop stop-color="rgba(60, 57, 60, 1)" offset="0.55"></stop></linearGradient></defs></svg>